<mxfile host="app.diagrams.net" modified="2021-01-13T03:56:20.105Z" agent="5.0 (Macintosh; Intel Mac OS X 10_15_7) AppleWebKit/537.36 (KHTML, like Gecko) Chrome/87.0.4280.88 Safari/537.36" etag="sGXUZrG8iDAQLvBN7SP4" version="14.1.9" type="github">
  <diagram id="96HYZf4xcGUfBk-wR1JX" name="Page-1">
    <mxGraphModel dx="2374" dy="1440" grid="1" gridSize="10" guides="1" tooltips="1" connect="1" arrows="1" fold="1" page="1" pageScale="1" pageWidth="850" pageHeight="1100" math="0" shadow="0">
      <root>
        <mxCell id="0" />
        <mxCell id="1" parent="0" />
        <mxCell id="Q27JY28-GFssJ0mxqY8--44" value="" style="group" vertex="1" connectable="0" parent="1">
          <mxGeometry x="1725" y="1320" width="800" height="630" as="geometry" />
        </mxCell>
        <mxCell id="Q27JY28-GFssJ0mxqY8--2" value="Backup&lt;br&gt;Wallet" style="shape=umlFrame;whiteSpace=wrap;html=1;rounded=0;shadow=0;comic=0;labelBackgroundColor=none;strokeWidth=1;fontFamily=Verdana;fontSize=10;align=center;width=80;height=30;" vertex="1" parent="Q27JY28-GFssJ0mxqY8--44">
          <mxGeometry width="800" height="630" as="geometry" />
        </mxCell>
        <mxCell id="Q27JY28-GFssJ0mxqY8--3" value="" style="shape=umlLifeline;participant=umlActor;perimeter=lifelinePerimeter;whiteSpace=wrap;html=1;container=1;collapsible=0;recursiveResize=0;verticalAlign=top;spacingTop=36;outlineConnect=0;" vertex="1" parent="Q27JY28-GFssJ0mxqY8--44">
          <mxGeometry x="80" y="105" width="20" height="445" as="geometry" />
        </mxCell>
        <mxCell id="Q27JY28-GFssJ0mxqY8--4" value="UI" style="html=1;" vertex="1" parent="Q27JY28-GFssJ0mxqY8--44">
          <mxGeometry x="210" y="100" width="110" height="50" as="geometry" />
        </mxCell>
        <mxCell id="Q27JY28-GFssJ0mxqY8--5" value="User" style="html=1;" vertex="1" parent="Q27JY28-GFssJ0mxqY8--44">
          <mxGeometry x="430" y="100" width="110" height="50" as="geometry" />
        </mxCell>
        <mxCell id="Q27JY28-GFssJ0mxqY8--6" value="DBOperator" style="html=1;" vertex="1" parent="Q27JY28-GFssJ0mxqY8--44">
          <mxGeometry x="650" y="100" width="110" height="50" as="geometry" />
        </mxCell>
        <mxCell id="Q27JY28-GFssJ0mxqY8--7" value="" style="endArrow=none;dashed=1;html=1;dashPattern=1 3;strokeWidth=2;exitX=0.45;exitY=0.004;exitDx=0;exitDy=0;exitPerimeter=0;" edge="1" parent="Q27JY28-GFssJ0mxqY8--44" source="Q27JY28-GFssJ0mxqY8--9">
          <mxGeometry x="-951.73" y="-2340" width="50" height="50" as="geometry">
            <mxPoint x="264" y="250" as="sourcePoint" />
            <mxPoint x="263.57000000000016" y="150" as="targetPoint" />
          </mxGeometry>
        </mxCell>
        <mxCell id="Q27JY28-GFssJ0mxqY8--8" value="tap backup tab" style="html=1;verticalAlign=bottom;endArrow=block;" edge="1" parent="Q27JY28-GFssJ0mxqY8--44">
          <mxGeometry width="80" as="geometry">
            <mxPoint x="107.5" y="220" as="sourcePoint" />
            <mxPoint x="252.5" y="220" as="targetPoint" />
          </mxGeometry>
        </mxCell>
        <mxCell id="Q27JY28-GFssJ0mxqY8--9" value="" style="html=1;points=[];perimeter=orthogonalPerimeter;" vertex="1" parent="Q27JY28-GFssJ0mxqY8--44">
          <mxGeometry x="260" y="200" width="10" height="330" as="geometry" />
        </mxCell>
        <mxCell id="Q27JY28-GFssJ0mxqY8--10" value="" style="group" vertex="1" connectable="0" parent="Q27JY28-GFssJ0mxqY8--44">
          <mxGeometry x="290" y="240" width="160" height="10" as="geometry" />
        </mxCell>
        <mxCell id="Q27JY28-GFssJ0mxqY8--11" value="" style="endArrow=classic;html=1;" edge="1" parent="Q27JY28-GFssJ0mxqY8--10">
          <mxGeometry x="-280" y="-480" as="geometry">
            <mxPoint as="sourcePoint" />
            <mxPoint x="160" as="targetPoint" />
          </mxGeometry>
        </mxCell>
        <mxCell id="Q27JY28-GFssJ0mxqY8--12" value="verifyPassord()" style="edgeLabel;resizable=0;html=1;align=center;verticalAlign=middle;" connectable="0" vertex="1" parent="Q27JY28-GFssJ0mxqY8--11">
          <mxGeometry relative="1" as="geometry">
            <mxPoint y="-9.66" as="offset" />
          </mxGeometry>
        </mxCell>
        <mxCell id="Q27JY28-GFssJ0mxqY8--13" value="" style="endArrow=none;html=1;startArrow=classic;startFill=1;endFill=0;" edge="1" parent="Q27JY28-GFssJ0mxqY8--10">
          <mxGeometry x="-280" y="-470" as="geometry">
            <mxPoint y="10" as="sourcePoint" />
            <mxPoint x="160" y="10" as="targetPoint" />
          </mxGeometry>
        </mxCell>
        <mxCell id="Q27JY28-GFssJ0mxqY8--14" value="fail" style="edgeLabel;resizable=0;html=1;align=center;verticalAlign=middle;" connectable="0" vertex="1" parent="Q27JY28-GFssJ0mxqY8--13">
          <mxGeometry relative="1" as="geometry">
            <mxPoint y="10" as="offset" />
          </mxGeometry>
        </mxCell>
        <mxCell id="Q27JY28-GFssJ0mxqY8--15" value="" style="html=1;points=[];perimeter=orthogonalPerimeter;" vertex="1" parent="Q27JY28-GFssJ0mxqY8--44">
          <mxGeometry x="480" y="200" width="10" height="290" as="geometry" />
        </mxCell>
        <mxCell id="Q27JY28-GFssJ0mxqY8--16" value="" style="endArrow=none;dashed=1;html=1;dashPattern=1 3;strokeWidth=2;entryX=0.5;entryY=1;entryDx=0;entryDy=0;" edge="1" parent="Q27JY28-GFssJ0mxqY8--44" target="Q27JY28-GFssJ0mxqY8--5">
          <mxGeometry x="-730.76" y="-2340.3199999999997" width="50" height="50" as="geometry">
            <mxPoint x="485" y="200" as="sourcePoint" />
            <mxPoint x="484.5399999999995" y="149.68000000000006" as="targetPoint" />
          </mxGeometry>
        </mxCell>
        <mxCell id="Q27JY28-GFssJ0mxqY8--17" value="" style="group" vertex="1" connectable="0" parent="Q27JY28-GFssJ0mxqY8--44">
          <mxGeometry x="290" y="300" width="160" height="10" as="geometry" />
        </mxCell>
        <mxCell id="Q27JY28-GFssJ0mxqY8--18" value="" style="endArrow=classic;html=1;" edge="1" parent="Q27JY28-GFssJ0mxqY8--17">
          <mxGeometry x="-280" y="-480" as="geometry">
            <mxPoint as="sourcePoint" />
            <mxPoint x="160" as="targetPoint" />
          </mxGeometry>
        </mxCell>
        <mxCell id="Q27JY28-GFssJ0mxqY8--19" value="verifyPassord()" style="edgeLabel;resizable=0;html=1;align=center;verticalAlign=middle;" connectable="0" vertex="1" parent="Q27JY28-GFssJ0mxqY8--18">
          <mxGeometry relative="1" as="geometry">
            <mxPoint y="-9.66" as="offset" />
          </mxGeometry>
        </mxCell>
        <mxCell id="Q27JY28-GFssJ0mxqY8--20" value="" style="endArrow=none;html=1;startArrow=classic;startFill=1;endFill=0;" edge="1" parent="Q27JY28-GFssJ0mxqY8--17">
          <mxGeometry x="-280" y="-470" as="geometry">
            <mxPoint y="10" as="sourcePoint" />
            <mxPoint x="160" y="10" as="targetPoint" />
          </mxGeometry>
        </mxCell>
        <mxCell id="Q27JY28-GFssJ0mxqY8--21" value="success" style="edgeLabel;resizable=0;html=1;align=center;verticalAlign=middle;" connectable="0" vertex="1" parent="Q27JY28-GFssJ0mxqY8--20">
          <mxGeometry relative="1" as="geometry">
            <mxPoint y="10" as="offset" />
          </mxGeometry>
        </mxCell>
        <mxCell id="Q27JY28-GFssJ0mxqY8--22" value="" style="group" vertex="1" connectable="0" parent="Q27JY28-GFssJ0mxqY8--44">
          <mxGeometry x="290" y="360" width="160" height="10" as="geometry" />
        </mxCell>
        <mxCell id="Q27JY28-GFssJ0mxqY8--23" value="" style="endArrow=classic;html=1;" edge="1" parent="Q27JY28-GFssJ0mxqY8--22">
          <mxGeometry x="-280" y="-480" as="geometry">
            <mxPoint as="sourcePoint" />
            <mxPoint x="160" as="targetPoint" />
          </mxGeometry>
        </mxCell>
        <mxCell id="Q27JY28-GFssJ0mxqY8--24" value="backupPaperWallet()" style="edgeLabel;resizable=0;html=1;align=center;verticalAlign=middle;" connectable="0" vertex="1" parent="Q27JY28-GFssJ0mxqY8--23">
          <mxGeometry relative="1" as="geometry">
            <mxPoint y="-9.66" as="offset" />
          </mxGeometry>
        </mxCell>
        <mxCell id="Q27JY28-GFssJ0mxqY8--25" value="" style="endArrow=none;dashed=1;html=1;dashPattern=1 3;strokeWidth=2;entryX=0.5;entryY=1;entryDx=0;entryDy=0;" edge="1" parent="Q27JY28-GFssJ0mxqY8--44" source="Q27JY28-GFssJ0mxqY8--26">
          <mxGeometry x="-511.18000000000006" y="-2340.3199999999997" width="50" height="50" as="geometry">
            <mxPoint x="704.5799999999995" y="200" as="sourcePoint" />
            <mxPoint x="704.5800000000004" y="150" as="targetPoint" />
          </mxGeometry>
        </mxCell>
        <mxCell id="Q27JY28-GFssJ0mxqY8--26" value="" style="html=1;points=[];perimeter=orthogonalPerimeter;" vertex="1" parent="Q27JY28-GFssJ0mxqY8--44">
          <mxGeometry x="700" y="340" width="10" height="120" as="geometry" />
        </mxCell>
        <mxCell id="Q27JY28-GFssJ0mxqY8--27" value="" style="group" vertex="1" connectable="0" parent="Q27JY28-GFssJ0mxqY8--44">
          <mxGeometry x="520" y="380" width="160" height="10" as="geometry" />
        </mxCell>
        <mxCell id="Q27JY28-GFssJ0mxqY8--28" value="" style="endArrow=classic;html=1;" edge="1" parent="Q27JY28-GFssJ0mxqY8--27">
          <mxGeometry x="-280" y="-480" as="geometry">
            <mxPoint as="sourcePoint" />
            <mxPoint x="160" as="targetPoint" />
          </mxGeometry>
        </mxCell>
        <mxCell id="Q27JY28-GFssJ0mxqY8--29" value="query()" style="edgeLabel;resizable=0;html=1;align=center;verticalAlign=middle;" connectable="0" vertex="1" parent="Q27JY28-GFssJ0mxqY8--28">
          <mxGeometry relative="1" as="geometry">
            <mxPoint y="-9.66" as="offset" />
          </mxGeometry>
        </mxCell>
        <mxCell id="Q27JY28-GFssJ0mxqY8--30" value="" style="endArrow=none;html=1;startArrow=classic;startFill=1;endFill=0;" edge="1" parent="Q27JY28-GFssJ0mxqY8--27">
          <mxGeometry x="-280" y="-470" as="geometry">
            <mxPoint y="10" as="sourcePoint" />
            <mxPoint x="160" y="10" as="targetPoint" />
          </mxGeometry>
        </mxCell>
        <mxCell id="Q27JY28-GFssJ0mxqY8--31" value="success: paperWallet" style="edgeLabel;resizable=0;html=1;align=center;verticalAlign=middle;" connectable="0" vertex="1" parent="Q27JY28-GFssJ0mxqY8--30">
          <mxGeometry relative="1" as="geometry">
            <mxPoint y="10" as="offset" />
          </mxGeometry>
        </mxCell>
        <mxCell id="Q27JY28-GFssJ0mxqY8--32" value="" style="endArrow=none;html=1;startArrow=classic;startFill=1;endFill=0;" edge="1" parent="Q27JY28-GFssJ0mxqY8--44">
          <mxGeometry x="10" y="-70" as="geometry">
            <mxPoint x="290" y="410" as="sourcePoint" />
            <mxPoint x="450" y="410" as="targetPoint" />
          </mxGeometry>
        </mxCell>
        <mxCell id="Q27JY28-GFssJ0mxqY8--33" value="success: paperWallet" style="edgeLabel;resizable=0;html=1;align=center;verticalAlign=middle;" connectable="0" vertex="1" parent="Q27JY28-GFssJ0mxqY8--32">
          <mxGeometry relative="1" as="geometry">
            <mxPoint y="10" as="offset" />
          </mxGeometry>
        </mxCell>
        <mxCell id="Q27JY28-GFssJ0mxqY8--34" value="&lt;span style=&quot;font-family: &amp;#34;helvetica&amp;#34; ; text-align: center&quot;&gt;re-render&lt;/span&gt;" style="edgeStyle=orthogonalEdgeStyle;html=1;align=left;spacingLeft=2;endArrow=block;rounded=0;entryX=1;entryY=0;" edge="1" parent="Q27JY28-GFssJ0mxqY8--44">
          <mxGeometry x="-1750" y="-1160" as="geometry">
            <mxPoint x="270" y="500" as="sourcePoint" />
            <Array as="points">
              <mxPoint x="295" y="500.01" />
              <mxPoint x="295" y="520.01" />
            </Array>
            <mxPoint x="275" y="520" as="targetPoint" />
            <mxPoint x="28" as="offset" />
          </mxGeometry>
        </mxCell>
        <mxCell id="Q27JY28-GFssJ0mxqY8--35" value="" style="endArrow=none;html=1;startArrow=classic;startFill=1;endFill=0;" edge="1" parent="Q27JY28-GFssJ0mxqY8--44">
          <mxGeometry x="-180" y="-40" as="geometry">
            <mxPoint x="100" y="440" as="sourcePoint" />
            <mxPoint x="260" y="440" as="targetPoint" />
          </mxGeometry>
        </mxCell>
        <mxCell id="Q27JY28-GFssJ0mxqY8--36" value="download: paperWallet" style="edgeLabel;resizable=0;html=1;align=center;verticalAlign=middle;" connectable="0" vertex="1" parent="Q27JY28-GFssJ0mxqY8--35">
          <mxGeometry relative="1" as="geometry">
            <mxPoint y="10" as="offset" />
          </mxGeometry>
        </mxCell>
        <mxCell id="Q27JY28-GFssJ0mxqY8--37" value="" style="group" vertex="1" connectable="0" parent="Q27JY28-GFssJ0mxqY8--44">
          <mxGeometry x="520" y="440" width="160" height="10" as="geometry" />
        </mxCell>
        <mxCell id="Q27JY28-GFssJ0mxqY8--38" value="" style="endArrow=classic;html=1;" edge="1" parent="Q27JY28-GFssJ0mxqY8--37">
          <mxGeometry x="-280" y="-480" as="geometry">
            <mxPoint as="sourcePoint" />
            <mxPoint x="160" as="targetPoint" />
          </mxGeometry>
        </mxCell>
        <mxCell id="Q27JY28-GFssJ0mxqY8--39" value="update()" style="edgeLabel;resizable=0;html=1;align=center;verticalAlign=middle;" connectable="0" vertex="1" parent="Q27JY28-GFssJ0mxqY8--38">
          <mxGeometry relative="1" as="geometry">
            <mxPoint y="-9.66" as="offset" />
          </mxGeometry>
        </mxCell>
        <mxCell id="Q27JY28-GFssJ0mxqY8--40" value="" style="endArrow=none;html=1;startArrow=classic;startFill=1;endFill=0;" edge="1" parent="Q27JY28-GFssJ0mxqY8--37">
          <mxGeometry x="-280" y="-470" as="geometry">
            <mxPoint y="10" as="sourcePoint" />
            <mxPoint x="160" y="10" as="targetPoint" />
          </mxGeometry>
        </mxCell>
        <mxCell id="Q27JY28-GFssJ0mxqY8--41" value="success" style="edgeLabel;resizable=0;html=1;align=center;verticalAlign=middle;" connectable="0" vertex="1" parent="Q27JY28-GFssJ0mxqY8--40">
          <mxGeometry relative="1" as="geometry">
            <mxPoint y="10" as="offset" />
          </mxGeometry>
        </mxCell>
        <mxCell id="Q27JY28-GFssJ0mxqY8--42" value="" style="endArrow=none;html=1;startArrow=classic;startFill=1;endFill=0;" edge="1" parent="Q27JY28-GFssJ0mxqY8--44">
          <mxGeometry x="-2260" y="-1670" as="geometry">
            <mxPoint x="290" y="470" as="sourcePoint" />
            <mxPoint x="450" y="470" as="targetPoint" />
          </mxGeometry>
        </mxCell>
        <mxCell id="Q27JY28-GFssJ0mxqY8--43" value="success" style="edgeLabel;resizable=0;html=1;align=center;verticalAlign=middle;" connectable="0" vertex="1" parent="Q27JY28-GFssJ0mxqY8--42">
          <mxGeometry relative="1" as="geometry">
            <mxPoint y="10" as="offset" />
          </mxGeometry>
        </mxCell>
      </root>
    </mxGraphModel>
  </diagram>
</mxfile>
